<?xml version="1.0" encoding="utf-8"?>
<!-- Generator: Adobe Illustrator 16.0.0, SVG Export Plug-In . SVG Version: 6.00 Build 0)  -->
<!DOCTYPE svg PUBLIC "-//W3C//DTD SVG 1.1//EN" "http://www.w3.org/Graphics/SVG/1.1/DTD/svg11.dtd">
<svg version="1.1" id="Capa_1" xmlns="http://www.w3.org/2000/svg" xmlns:xlink="http://www.w3.org/1999/xlink" x="0px" y="0px"
	 width="779.529px" height="694.49px" viewBox="0 0 779.529 694.49" enable-background="new 0 0 779.529 694.49"
	 xml:space="preserve">
<g>
	<rect x="379.957" y="202.725" fill="#556080" width="23.948" height="287.375"/>
	<polygon fill="#556080" points="667.335,490.1 643.385,490.1 643.385,358.386 140.479,358.386 140.479,490.1 116.531,490.1 
		116.531,334.437 667.335,334.437 	"/>
	<path fill="#FB7B76" d="M128.504,657.735L128.504,657.735c-46.292,0-83.816-37.526-83.816-83.817l0,0
		c0-46.292,37.524-83.818,83.816-83.818l0,0c46.291,0,83.817,37.526,83.817,83.818l0,0
		C212.323,620.209,174.795,657.735,128.504,657.735z"/>
	<path fill="#FB7B76" d="M655.36,657.735L655.36,657.735c-46.292,0-83.816-37.526-83.816-83.817l0,0
		c0-46.292,37.524-83.818,83.816-83.818l0,0c46.291,0,83.817,37.526,83.817,83.818l0,0
		C739.177,620.209,701.651,657.735,655.36,657.735z"/>
	<path fill="#FB7B76" d="M391.932,657.735L391.932,657.735c-46.292,0-83.818-37.526-83.818-83.817l0,0
		c0-46.292,37.526-83.818,83.818-83.818l0,0c46.291,0,83.816,37.526,83.816,83.818l0,0
		C475.749,620.209,438.223,657.735,391.932,657.735z"/>
	<rect x="308.115" y="35.088" fill="#B49ACA" width="167.636" height="167.636"/>
</g>
<g>
	<rect x="379.957" y="202.725" fill="#556080" width="23.948" height="287.375"/>
	<polygon fill="#556080" points="667.335,490.1 643.385,490.1 643.385,358.386 140.479,358.386 140.479,490.1 116.531,490.1 
		116.531,334.437 667.335,334.437 	"/>
	<path fill="#FB7B76" d="M128.504,657.735L128.504,657.735c-46.292,0-83.816-37.526-83.816-83.817l0,0
		c0-46.292,37.524-83.818,83.816-83.818l0,0c46.291,0,83.817,37.526,83.817,83.818l0,0
		C212.323,620.209,174.795,657.735,128.504,657.735z"/>
	<path fill="#FB7B76" d="M655.36,657.735L655.36,657.735c-46.292,0-83.816-37.526-83.816-83.817l0,0
		c0-46.292,37.524-83.818,83.816-83.818l0,0c46.291,0,83.817,37.526,83.817,83.818l0,0
		C739.177,620.209,701.651,657.735,655.36,657.735z"/>
	<path fill="#FB7B76" d="M391.932,657.735L391.932,657.735c-46.292,0-83.818-37.526-83.818-83.817l0,0
		c0-46.292,37.526-83.818,83.818-83.818l0,0c46.291,0,83.816,37.526,83.816,83.818l0,0
		C475.749,620.209,438.223,657.735,391.932,657.735z"/>
	<rect x="308.115" y="35.088" fill="#B49ACA" width="167.636" height="167.636"/>
</g>
<rect x="379.957" y="202.725" fill="#1C2440" width="23.948" height="287.375"/>
<polygon fill="#1C2440" points="667.335,490.1 643.385,490.1 643.385,358.386 140.479,358.386 140.479,490.1 116.531,490.1 
	116.531,334.437 667.335,334.437 "/>
<path fill="#F73B37" d="M128.504,657.735L128.504,657.735c-46.292,0-83.816-37.526-83.816-83.817l0,0
	c0-46.292,37.524-83.818,83.816-83.818l0,0c46.291,0,83.817,37.526,83.817,83.818l0,0
	C212.323,620.209,174.795,657.735,128.504,657.735z"/>
<path fill="#F73B37" d="M655.36,657.735L655.36,657.735c-46.292,0-83.816-37.526-83.816-83.817l0,0
	c0-46.292,37.524-83.818,83.816-83.818l0,0c46.291,0,83.817,37.526,83.817,83.818l0,0
	C739.177,620.209,701.651,657.735,655.36,657.735z"/>
<path fill="#F73B37" d="M391.932,657.735L391.932,657.735c-46.292,0-83.818-37.526-83.818-83.817l0,0
	c0-46.292,37.526-83.818,83.818-83.818l0,0c46.291,0,83.816,37.526,83.816,83.818l0,0
	C475.749,620.209,438.223,657.735,391.932,657.735z"/>
<rect x="308.115" y="35.088" fill="#7F5DA0" width="167.636" height="167.636"/>
</svg>
